<?xml version="1.0" encoding="iso-8859-1"?>
<!-- Uploaded to: SVG Repo, www.svgrepo.com, Generator: SVG Repo Mixer Tools -->
<svg fill="#000000" height="800px" width="800px" version="1.1" id="Capa_1" xmlns="http://www.w3.org/2000/svg" xmlns:xlink="http://www.w3.org/1999/xlink" 
	 viewBox="0 0 360 360" xml:space="preserve">
<g id="XMLID_1029_">
	<path id="XMLID_1030_" d="M345,125.178h-50V77.834L211.977,0H15v360h280v-52.095h50V125.178z M315,277.905H105V155.178h210V277.905
		z"/>
	<path id="XMLID_1033_" d="M143.006,233.483c-2.352,0-4.644-0.286-6.88-0.86c-2.235-0.572-4.271-1.275-6.106-2.107
		c-1.836-0.831-3.427-1.662-4.773-2.494c-1.348-0.831-2.279-1.505-2.795-2.021l-5.246,10.234c3.555,2.524,7.568,4.472,12.04,5.848
		c4.472,1.376,9.001,2.064,13.588,2.064c2.98,0,5.833-0.331,8.558-0.989c2.722-0.659,5.13-1.706,7.224-3.139
		c2.092-1.433,3.755-3.311,4.988-5.633c1.232-2.322,1.849-5.117,1.849-8.385c0-2.809-0.46-5.173-1.376-7.095
		c-0.918-1.92-2.223-3.569-3.913-4.945c-1.691-1.376-3.756-2.522-6.191-3.44c-2.438-0.916-5.147-1.776-8.128-2.58
		c-2.293-0.572-4.314-1.118-6.063-1.634c-1.75-0.516-3.197-1.088-4.343-1.72c-1.148-0.63-2.021-1.361-2.623-2.193
		c-0.602-0.83-0.903-1.877-0.903-3.139c0-2.178,0.803-3.87,2.408-5.074c1.605-1.204,4.042-1.806,7.31-1.806
		c1.835,0,3.641,0.23,5.418,0.688c1.776,0.46,3.426,1.018,4.945,1.677c1.519,0.66,2.809,1.333,3.87,2.021
		c1.061,0.689,1.791,1.234,2.193,1.634l5.245-9.632c-2.695-1.835-5.848-3.425-9.46-4.773c-3.611-1.346-7.567-2.021-11.867-2.021
		c-3.097,0-5.992,0.417-8.686,1.247c-2.695,0.832-5.061,2.051-7.095,3.655c-2.036,1.605-3.627,3.612-4.773,6.02
		c-1.147,2.408-1.72,5.16-1.72,8.256c0,2.352,0.357,4.372,1.075,6.063c0.716,1.692,1.791,3.182,3.225,4.472
		c1.433,1.29,3.226,2.408,5.375,3.354c2.15,0.946,4.688,1.821,7.611,2.623c2.408,0.688,4.586,1.319,6.536,1.892
		c1.948,0.574,3.611,1.204,4.987,1.892c1.376,0.688,2.437,1.492,3.183,2.408c0.744,0.917,1.118,2.036,1.118,3.354
		C152.811,231.391,149.542,233.483,143.006,233.483z"/>
	<polygon id="XMLID_1034_" points="201.314,243.459 211.892,217.831 222.47,243.459 232.446,243.459 257.3,182.399 244.4,182.399 
		227.114,229.871 219.374,210.349 229.78,182.571 218.773,182.571 211.892,202.781 205.012,182.571 194.09,182.571 204.324,210.349 
		196.756,229.871 179.384,182.399 166.656,182.399 191.338,243.459 	"/>
	<polygon id="XMLID_1035_" points="275.445,218.175 299.697,218.175 299.697,208.543 275.445,208.543 275.445,192.805 
		304.6,192.805 304.6,182.399 263.577,182.399 263.577,243.459 275.445,243.459 	"/>
</g>
</svg>